<svg xmlns="http://www.w3.org/2000/svg" viewBox="0 0 712 200" role="img" aria-labelledby="title desc"><title id="title">Four listening-picture choices, board 11</title><desc id="desc">Picture A shows one person pointing; a bag is under the table; visible feature: none. Picture B shows one person standing; a kite is beside the table; visible feature: glasses. Picture C shows one person sitting; a cup is behind the table; visible feature: hat. Picture D shows 2 people walking; a bottle is on the table; visible feature: scarf.</desc><defs><pattern id="dots" width="7" height="7" patternUnits="userSpaceOnUse"><circle cx="2" cy="2" r="1.1" fill="#000"/></pattern></defs><rect x="2" y="2" width="708" height="196" fill="#fff" stroke="#000" stroke-width="3"/><g><path d="M105 118h65m-58 0v48m51-48v48" stroke="#000" stroke-width="4"/><rect x="120" y="149" width="40" height="32" fill="url(#dots)" stroke="#000" stroke-width="3"/><path d="M130 149q10-18 20 0" fill="none" stroke="#000" stroke-width="3"/><circle cx="38" cy="78" r="17" fill="#fff" stroke="#000" stroke-width="3"/><path d="M38 95v40M38 108h38M38 108l-22 22M38 135l-15 34m15-34l15 34" fill="none" stroke="#000" stroke-width="4"/><text x="89" y="24" text-anchor="middle" font-family="sans-serif" font-size="20" font-weight="700">A</text></g><g><path d="M283 118h65m-58 0v48m51-48v48" stroke="#000" stroke-width="4"/><path d="M283 117l22 28l-22 28l-22-28zM283 173q18 15 4 30" fill="url(#dots)" stroke="#000" stroke-width="3"/><circle cx="216" cy="78" r="17" fill="#fff" stroke="#000" stroke-width="3"/><circle cx="208" cy="78" r="6" fill="none" stroke="#000"/><circle cx="224" cy="78" r="6" fill="none" stroke="#000"/><path d="M214 78h4" stroke="#000"/><path d="M216 95v40M216 108l-22 24m22-24l22 24M216 135l-15 34m15-34l15 34" fill="none" stroke="#000" stroke-width="4"/><text x="267" y="24" text-anchor="middle" font-family="sans-serif" font-size="20" font-weight="700">B</text></g><g><path d="M480 103h32l-4 36h-24zM512 111q18 0 10 18q-5 8-13 3" fill="#fff" stroke="#000" stroke-width="3"/><path d="M461 118h65m-58 0v48m51-48v48" stroke="#000" stroke-width="4"/><path d="M376 138h38v25m-38-25v25" stroke="#000" stroke-width="3"/><circle cx="394" cy="105" r="17" fill="#fff" stroke="#000" stroke-width="3"/><path d="M376 93h36m-30 0q12-18 24 0" fill="#fff" stroke="#000" stroke-width="3"/><path d="M394 122v21M394 108l-22 24m22-24l22 24M394 143l-15 34m15-34l15 34" fill="none" stroke="#000" stroke-width="4"/><text x="445" y="24" text-anchor="middle" font-family="sans-serif" font-size="20" font-weight="700">C</text></g><g><path d="M639 118h65m-58 0v48m51-48v48" stroke="#000" stroke-width="4"/><path d="M667 58h14v10l7 9v28h-28v-28l7-9z" fill="#fff" stroke="#000" stroke-width="3"/><circle cx="572" cy="78" r="17" fill="#fff" stroke="#000" stroke-width="3"/><path d="M560 97h24m-3 0v28" stroke="#000" stroke-width="4"/><path d="M572 95v40M572 108l-22 24m22-24l22 24M572 135l-20 35m20-35l22 23" fill="none" stroke="#000" stroke-width="4"/><circle cx="614" cy="78" r="17" fill="#fff" stroke="#000" stroke-width="3"/><path d="M602 97h24m-3 0v28" stroke="#000" stroke-width="4"/><path d="M614 95v40M614 108l-22 24m22-24l22 24M614 135l-20 35m20-35l22 23" fill="none" stroke="#000" stroke-width="4"/><text x="623" y="24" text-anchor="middle" font-family="sans-serif" font-size="20" font-weight="700">D</text></g><path d="M178 2v196M356 2v196M534 2v196" stroke="#000" stroke-width="2"/></svg>